<?xml version="1.0" encoding="UTF-8" standalone="no"?>
<svg
   xmlns:dc="http://purl.org/dc/elements/1.1/"
   xmlns:cc="http://creativecommons.org/ns#"
   xmlns:rdf="http://www.w3.org/1999/02/22-rdf-syntax-ns#"
   xmlns:svg="http://www.w3.org/2000/svg"
   xmlns="http://www.w3.org/2000/svg"
   xmlns:sodipodi="http://sodipodi.sourceforge.net/DTD/sodipodi-0.dtd"
   xmlns:inkscape="http://www.inkscape.org/namespaces/inkscape"
   viewBox="0 0 62 14"
   version="1.1"
   id="svg402"
   sodipodi:docname="Telegram.svg"
   inkscape:version="0.92.3 (2405546, 2018-03-11)">
  <metadata
     id="metadata408">
    <rdf:RDF>
      <cc:Work
         rdf:about="">
        <dc:format>image/svg+xml</dc:format>
        <dc:type
           rdf:resource="http://purl.org/dc/dcmitype/StillImage" />
      </cc:Work>
    </rdf:RDF>
  </metadata>
  <defs
     id="defs406" />
  <sodipodi:namedview
     pagecolor="#ffffff"
     bordercolor="#666666"
     borderopacity="1"
     objecttolerance="10"
     gridtolerance="10"
     guidetolerance="10"
     inkscape:pageopacity="0"
     inkscape:pageshadow="2"
     inkscape:window-width="1853"
     inkscape:window-height="1025"
     id="namedview404"
     showgrid="true"
     inkscape:zoom="5.516129"
     inkscape:cx="95.34774"
     inkscape:cy="8.0877193"
     inkscape:window-x="67"
     inkscape:window-y="27"
     inkscape:window-maximized="1"
     inkscape:current-layer="text414">
    <inkscape:grid
       type="xygrid"
       id="grid410" />
  </sodipodi:namedview>
  <g
     transform="translate(-32.463-118.67)"
     fill="#fff"
     id="g400"
     style="fill:#000000">
    <g
       aria-label="blockOgram"
       style="font-style:normal;font-weight:normal;font-size:40px;line-height:1.25;font-family:sans-serif;letter-spacing:0px;word-spacing:0px;fill:#000000;fill-opacity:1;stroke:none"
       id="text414">
      <path
         d="m 34.156715,122.70853 q 0.492188,-1 1.84375,-1 2.046875,0 2.65625,2 0.203125,0.67187 0.203125,1.53125 0,1.73437 -0.78125,2.8125 -0.773437,1.07812 -2.21875,1.07812 -1.179687,0 -1.75,-0.72656 l -0.04687,0.625 h -1.375 v -10.07031 h 1.46875 z m 1.359375,4.84375 q 1.78125,0 1.78125,-2.20313 0,-1.05469 -0.382812,-1.59375 -0.375,-0.54687 -1.351563,-0.54687 -0.976562,0 -1.296875,0.89062 -0.109375,0.3125 -0.109375,0.74219 v 2.20312 q 0.507813,0.50782 1.359375,0.50782 z"
         style="font-style:normal;font-variant:normal;font-weight:bold;font-stretch:normal;font-size:16px;font-family:Keraleeyam;-inkscape-font-specification:'Keraleeyam Bold';fill:#ffffff"
         id="path889" />
      <path
         d="M 40.906715,128.97415 H 39.352028 V 118.9429 h 1.554687 z"
         style="font-style:normal;font-variant:normal;font-weight:bold;font-stretch:normal;font-size:16px;font-family:Keraleeyam;-inkscape-font-specification:'Keraleeyam Bold';fill:#ffffff"
         id="path891" />
      <path
         d="m 47.367653,125.40384 q 0,1.67969 -0.757813,2.69531 -0.75,1.00781 -2.226562,1.00781 -1.476563,0 -2.242188,-1.00781 -0.765625,-1.00781 -0.765625,-2.69531 0,-2.61719 1.679688,-3.42969 0.5625,-0.26562 1.320312,-0.26562 0.765625,0 1.328125,0.26562 0.5625,0.28125 0.929688,0.76563 0.734375,0.97656 0.734375,2.66406 z m -2.976563,2.32031 q 0.789063,0 1.132813,-0.58594 0.351562,-0.59375 0.351562,-1.46875 0,-0.875 -0.08594,-1.29687 -0.08594,-0.42969 -0.265625,-0.70313 -0.179688,-0.27343 -0.460938,-0.39843 -0.273437,-0.125 -0.664062,-0.125 -0.796875,0 -1.148438,0.53125 -0.351562,0.52343 -0.351562,1.69531 0,1.17187 0.351562,1.76562 0.359375,0.58594 1.140625,0.58594 z"
         style="font-style:normal;font-variant:normal;font-weight:bold;font-stretch:normal;font-size:16px;font-family:Keraleeyam;-inkscape-font-specification:'Keraleeyam Bold';fill:#ffffff"
         id="path893" />
      <path
         d="m 51.32859,127.68509 q 0.882813,0 1.585938,-0.32813 v 1.5 q -0.796875,0.27344 -1.703125,0.27344 -1.679688,0 -2.507813,-1.00781 -0.828125,-1.01563 -0.828125,-2.67969 0,-1.66406 0.851563,-2.6875 0.851562,-1.03125 2.445312,-1.03125 0.828125,0 1.664063,0.29688 v 1.42187 q -0.695313,-0.29687 -1.28125,-0.29687 -1.117188,0 -1.648438,0.5625 -0.53125,0.55468 -0.53125,1.74218 0,2.23438 1.953125,2.23438 z"
         style="font-style:normal;font-variant:normal;font-weight:bold;font-stretch:normal;font-size:16px;font-family:Keraleeyam;-inkscape-font-specification:'Keraleeyam Bold';fill:#ffffff"
         id="path895" />
      <path
         d="m 58.930153,128.97415 h -1.578125 l -1.804688,-2.92969 -0.726562,0.9375 v 1.99219 H 53.35984 V 118.9429 h 1.460938 v 6.01563 l 2.507812,-3.00782 h 1.421875 l -2.171875,3.03125 z"
         style="font-style:normal;font-variant:normal;font-weight:bold;font-stretch:normal;font-size:16px;font-family:Keraleeyam;-inkscape-font-specification:'Keraleeyam Bold';fill:#ffffff"
         id="path897" />
      <path
         d="m 59.562965,123.9429 q 0,-5.13281 3.664063,-5.13281 3.664062,0 3.664062,5.13281 0,3.70313 -1.960937,4.77344 -0.710938,0.38281 -1.710938,0.38281 -1.921875,0 -2.828125,-1.45312 -0.828125,-1.30469 -0.828125,-3.70313 z m 5.242188,2.71094 q 0.476562,-0.88281 0.476562,-2.76563 0,-1.88281 -0.453125,-2.71875 -0.445312,-0.84375 -1.585937,-0.84375 -1.132813,0 -1.601563,0.83594 -0.46875,0.83594 -0.46875,2.73438 0,1.89062 0.460938,2.76562 0.46875,0.86719 1.578125,0.86719 1.117187,0 1.59375,-0.875 z"
         style="font-style:normal;font-variant:normal;font-weight:bold;font-stretch:normal;font-size:16px;font-family:Keraleeyam;-inkscape-font-specification:'Keraleeyam Bold';fill:#ffffff"
         id="path899" />
      <path
         d="m 72.64109,122.41165 q 0.773438,-0.0547 1.695313,-0.65625 v 1.53906 q -0.414063,0.25 -1.070313,0.30469 0.07813,0.25 0.07813,0.70313 0,1.01562 -0.765625,1.71093 -0.757812,0.6875 -2.054687,0.6875 -0.492188,0 -1.117188,-0.14062 -0.46875,0.3125 -0.46875,0.65625 0,0.33594 0.140625,0.4375 0.265625,0.19531 0.757813,0.20312 0.5,0 1.757812,0.0234 1.265625,0.0156 1.867188,0.55469 0.601562,0.53125 0.601562,1.47656 0,1.14844 -1.085937,1.84375 -1.085938,0.70313 -2.734375,0.70313 -2.90625,0 -2.90625,-1.8125 0,-1.03907 1.09375,-1.74219 -0.6875,-0.46094 -0.6875,-1.21875 0,-0.51563 0.21875,-0.85156 0.226562,-0.34375 0.632812,-0.64844 -0.945312,-0.71094 -0.945312,-1.88281 0,-1.17969 0.78125,-1.88282 0.78125,-0.71093 2.09375,-0.71093 1.320312,0 2.117187,0.70312 z m -0.8125,1.79688 q 0,-1.28907 -1.320312,-1.28907 -1.3125,0 -1.3125,1.29688 0,1.29687 1.34375,1.29687 0.695312,0 0.992187,-0.34375 0.296875,-0.35156 0.296875,-0.96093 z m -1.601562,6.91406 q 1.648437,0.008 2.117187,-0.63281 0.148438,-0.20313 0.148438,-0.39063 0,-0.39062 -0.226563,-0.60937 -0.226562,-0.21875 -0.851562,-0.23438 l -1.453125,-0.0312 q -0.960938,-0.0234 -1.148438,0.60156 -0.04687,0.17969 -0.05469,0.39844 0,0.46875 0.414062,0.67969 0.421875,0.21875 1.054688,0.21875 z"
         style="font-style:normal;font-variant:normal;font-weight:bold;font-stretch:normal;font-size:16px;font-family:Keraleeyam;-inkscape-font-specification:'Keraleeyam Bold';fill:#ffffff"
         id="path901" />
      <path
         d="m 77.781715,121.7554 q 0.28125,-0.0625 0.484375,-0.0625 0.203125,0 0.414063,0.0391 v 1.53125 q -0.234375,-0.0625 -0.578125,-0.0625 -0.742188,0 -1.257813,0.4375 -0.515625,0.42969 -0.515625,1.21094 v 4.10938 h -1.554687 v -7.07813 h 1.507812 l 0.0625,0.96094 q 0.398438,-0.875 1.4375,-1.08594 z"
         style="font-style:normal;font-variant:normal;font-weight:bold;font-stretch:normal;font-size:16px;font-family:Keraleeyam;-inkscape-font-specification:'Keraleeyam Bold';fill:#ffffff"
         id="path903" />
      <path
         d="m 79.602028,122.08353 q 0.945312,-0.34375 1.820312,-0.34375 1.65625,0 2.4375,0.66406 0.789063,0.65625 0.789063,2.19531 v 4.42969 h -1.492188 l -0.03125,-0.625 q -0.476562,0.72656 -1.679687,0.72656 -1.632813,0 -2.164063,-1.1875 -0.203125,-0.4375 -0.203125,-1.14062 0,-2.3125 3.117188,-2.30469 0.546875,0 0.929687,0.0547 v -0.26563 q 0,-1.17187 -1.710937,-1.17187 -0.695313,0 -1.8125,0.4375 z m 2.835937,3.54687 q -1.90625,0 -1.90625,1.17188 0,0.78125 0.703125,0.90625 0.242188,0.0469 0.570313,0.0391 1.007812,0 1.320312,-0.63281 v -1.4375 q -0.296875,-0.0469 -0.6875,-0.0469 z"
         style="font-style:normal;font-variant:normal;font-weight:bold;font-stretch:normal;font-size:16px;font-family:Keraleeyam;-inkscape-font-specification:'Keraleeyam Bold';fill:#ffffff"
         id="path905" />
      <path
         d="m 92.445778,121.70071 q 2.09375,0 2.09375,2.89844 v 4.375 h -1.453125 v -4.25 q 0,-0.82031 -0.203125,-1.13281 -0.195313,-0.32031 -0.429688,-0.4375 -0.234375,-0.11719 -0.523437,-0.11719 -0.640625,0 -0.9375,0.27344 -0.429688,0.39062 -0.429688,1.41406 v 4.25 h -1.460937 v -4.25 q 0,-0.875 -0.203125,-1.17187 -0.195313,-0.29688 -0.429688,-0.40625 -0.234375,-0.10938 -0.546875,-0.10938 -0.640625,0 -0.984375,0.35938 -0.34375,0.35156 -0.34375,1.32812 v 4.25 h -1.460937 v -7.10937 h 1.367187 l 0.0625,1.17187 q 0.179688,-0.61719 0.703125,-0.97656 0.53125,-0.35938 1.210938,-0.35938 1.46875,0 1.914062,1.45313 0.5,-1.45313 2.054688,-1.45313 z"
         style="font-style:normal;font-variant:normal;font-weight:bold;font-stretch:normal;font-size:16px;font-family:Keraleeyam;-inkscape-font-specification:'Keraleeyam Bold';fill:#ffffff"
         id="path907" />
    </g>
    <text
       xml:space="preserve"
       style="font-style:normal;font-weight:normal;font-size:40px;line-height:1.25;font-family:sans-serif;letter-spacing:0px;word-spacing:0px;fill:#000000;fill-opacity:1;stroke:none"
       x="77.462997"
       y="92.669998"
       id="text418"><tspan
         sodipodi:role="line"
         id="tspan416"
         x="77.462997"
         y="128.06062"
         style="font-style:normal;font-variant:normal;font-weight:normal;font-stretch:normal;font-size:14.66666698px;font-family:'Ubuntu Condensed';-inkscape-font-specification:'Ubuntu Condensed, '" /></text>
  </g>
</svg>
